HIERARCHY
ROOT Hips
{
	OFFSET 0.000000 8.830580 0.000000
	CHANNELS 6 Xposition Yposition Zposition Zrotation Yrotation Xrotation 
	JOINT Spine
	{
		OFFSET 0.000000 0.010000 0.000000
		CHANNELS 3 Zrotation Yrotation Xrotation
		JOINT Spine1
		{
			OFFSET 0.000000 2.459130 0.000000
			CHANNELS 3 Zrotation Yrotation Xrotation
			JOINT Neck
			{
				OFFSET 0.000000 2.484630 0.000000
				CHANNELS 3 Zrotation Yrotation Xrotation
				JOINT Head_virtual
				{
					OFFSET 0.000000 0.000000 0.000000
					CHANNELS 3 Zrotation Yrotation Xrotation
					JOINT Head
					{
						OFFSET 0.000000 0.927525 0.000000
						CHANNELS 3 Zrotation Yrotation Xrotation
						End Site
						{
							OFFSET 0.000000 0.000000 0.000000
						}
					}
				}
				JOINT LeftUpArm_virtual
				{
					OFFSET 0.000000 0.000000 0.000000
					CHANNELS 3 Zrotation Yrotation Xrotation
					JOINT LeftUpArm
					{
						OFFSET 1.248820 0.000000 0.000000
						CHANNELS 3 Zrotation Yrotation Xrotation
						JOINT LeftForeArm
						{
							OFFSET 2.597580 0.000000 0.000000
							CHANNELS 3 Zrotation Yrotation Xrotation
							JOINT LeftHand
							{
								OFFSET 2.455420 0.000000 0.000000
								CHANNELS 3 Zrotation Yrotation Xrotation
								End Site
								{
									OFFSET 0.000000 0.000000 0.000000
								}
							}
						}
					}
				}
				JOINT RightUpArm_virtual
				{
					OFFSET -0.000000 -0.000000 -0.000000
					CHANNELS 3 Zrotation Yrotation Xrotation
					JOINT RightUpArm
					{
						OFFSET -1.248820 -0.000000 -0.000000
						CHANNELS 3 Zrotation Yrotation Xrotation
						JOINT RightForeArm
						{
							OFFSET -2.597580 -0.000000 -0.000000
							CHANNELS 3 Zrotation Yrotation Xrotation
							JOINT RightHand
							{
								OFFSET -2.455420 -0.000000 -0.000000
								CHANNELS 3 Zrotation Yrotation Xrotation
								End Site
								{
									OFFSET 0.000000 0.000000 0.000000
								}
							}
						}
					}
				}
			}
		}
	}
	JOINT LeftUpLeg
	{
		OFFSET 1.271939 0.000000 0.000000
		CHANNELS 3 Zrotation Yrotation Xrotation
		JOINT LeftLowLeg
		{
			OFFSET 0.000000 -4.342910 0.000000
			CHANNELS 3 Zrotation Yrotation Xrotation
			JOINT LeftFoot
			{
				OFFSET 0.000000 -4.487670 0.000000
				CHANNELS 3 Zrotation Yrotation Xrotation
				JOINT LeftToeBase
				{
					OFFSET 0.000000 0.000000 1.515070
					CHANNELS 3 Zrotation Yrotation Xrotation
					End Site
					{
						OFFSET 0.000000 0.000000 0.000000
					}
				}
			}
		}
	}
	JOINT RightUpLeg
	{
		OFFSET -1.271939 0.000000 0.000000
		CHANNELS 3 Zrotation Yrotation Xrotation
		JOINT RightLowLeg
		{
			OFFSET 0.000000 -4.342910 0.000000
			CHANNELS 3 Zrotation Yrotation Xrotation
			JOINT RightFoot
			{
				OFFSET 0.000000 -4.487670 0.000000
				CHANNELS 3 Zrotation Yrotation Xrotation
				JOINT RightToeBase
				{
					OFFSET 0.000000 0.000000 1.515070
					CHANNELS 3 Zrotation Yrotation Xrotation
					End Site
					{
						OFFSET 0.000000 0.000000 0.000000
					}
				}
			}
		}
	}
}
MOTION
Frames: 5
Frame Time: 0.041667
-15.384080 9.004237 35.265313 -176.239850 -30.904950 -172.957430 5.555937 5.113120 -22.062176 -5.893495 3.769618 8.517063 0.000000 0.000000 0.000000 21.044306 -1.618011 3.007003 -16.296475 -5.395592 -65.789559 -20.522400 -1.974850 11.161600 -45.493500 14.712200 80.480988 0.000000 -87.029099 0.000000 24.736900 -48.435902 61.021900 21.944901 3.334910 7.765760 31.105400 62.821499 -13.697998 0.000000 22.503901 0.000000 -2.720420 -15.138800 -18.892900 1.196382 -23.652272 -3.890964 0.000000 0.000000 7.362650 -0.479442 21.609325 -4.411723 0.000000 0.000000 -11.420720 8.130487 24.001886 -2.158279 0.000000 0.000000 4.041100 2.311156 -26.291236 2.562087 0.000000 0.000000 -17.166310 
-15.384678 9.003128 35.257820 -176.224313 -30.852386 -172.940926 5.499652 5.056605 -22.195249 -5.871653 3.810108 8.667324 0.000000 0.000000 0.000000 21.149677 -1.674388 2.691299 -16.126124 -5.273309 -65.801998 -20.544800 -1.861680 11.022700 -45.497101 15.035100 80.552002 0.000000 -87.144402 0.000000 26.981899 -47.015400 58.607300 22.163000 3.408590 8.033210 31.423700 62.051701 -12.718994 0.000000 22.336500 0.000000 -2.018340 -15.199900 -18.793501 1.211061 -23.663667 -3.866489 0.000000 0.000000 7.376370 -0.488577 21.682624 -4.480607 0.000000 0.000000 -11.408630 8.168159 24.072212 -2.133052 0.000000 0.000000 4.031910 2.267001 -26.324800 2.563053 0.000000 0.000000 -17.188150 
-15.385668 9.001482 35.249996 -176.212575 -30.804547 -172.862396 5.337624 5.024514 -22.389370 -5.652350 3.979457 8.785739 0.000000 0.000000 0.000000 21.001458 -1.716068 2.210931 -15.824128 -5.430692 -66.108300 -20.688200 -1.907140 11.078800 -45.486599 15.339500 80.440002 0.000000 -87.230301 0.000000 29.418699 -46.176300 55.825401 22.312700 3.459890 8.318530 31.779200 60.836300 -11.617004 0.000000 22.209400 0.000000 -1.037550 -15.058400 -19.163900 1.243556 -23.687022 -3.902793 0.000000 0.000000 7.388640 -0.498485 21.773720 -4.557571 0.000000 0.000000 -11.426270 8.173467 24.077705 -2.167759 0.000000 0.000000 4.020290 2.263933 -26.267687 2.526098 0.000000 0.000000 -17.196560 
-15.386658 8.999976 35.242783 -176.193812 -30.791563 -172.830078 5.405155 4.978302 -22.609082 -5.838413 3.948969 9.151684 0.000000 0.000000 0.000000 20.806639 -1.584981 1.532589 -15.516441 -5.322179 -66.381872 -20.629700 -1.580040 10.792900 -45.484699 15.631700 80.377991 0.000000 -87.299500 0.000000 31.388201 -45.233700 53.591301 22.762400 3.833930 8.726170 31.849001 59.350899 -10.317993 0.000000 22.352400 0.000000 -0.049677 -14.963900 -19.925301 1.271244 -23.727765 -3.910494 0.000000 0.000000 7.414820 -0.512132 21.845505 -4.641993 0.000000 0.000000 -11.403540 8.198908 24.038831 -2.160039 0.000000 0.000000 4.007820 2.288526 -26.180077 2.483515 0.000000 0.000000 -17.184220 
-15.388421 8.997954 35.235590 -176.176163 -30.798296 -172.803740 5.358120 4.972798 -22.766076 -5.774441 4.051800 9.411807 0.000000 0.000000 0.000000 20.457823 -1.551967 0.699051 -15.064885 -5.468348 -66.783880 -20.668501 -1.482870 10.624200 -45.546299 15.956100 80.420990 0.000000 -87.155296 0.000000 33.217602 -44.683899 51.475300 23.082199 3.946860 9.062450 32.461399 57.861900 -9.731995 0.000000 22.049299 0.000000 0.802884 -14.511500 -19.943800 1.295915 -23.797419 -3.907977 0.000000 0.000000 7.434940 -0.544885 21.909922 -4.741360 0.000000 0.000000 -11.396460 8.228591 24.025170 -2.137855 0.000000 0.000000 3.991450 2.327025 -26.142305 2.418201 0.000000 0.000000 -17.185010 
